<?xml version="1.0" standalone="no"?>
<!DOCTYPE svg PUBLIC "-//W3C//DTD SVG 20010904//EN"
 "http://www.w3.org/TR/2001/REC-SVG-20010904/DTD/svg10.dtd">
<svg version="1.0" xmlns="http://www.w3.org/2000/svg"
 width="1080.000000pt" height="1080.000000pt" viewBox="0 0 1080.000000 1080.000000"
 preserveAspectRatio="xMidYMid meet">

<g transform="translate(0.000000,1080.000000) scale(0.100000,-0.100000)"
fill="#000000" stroke="none">
<path d="M4918 7318 c-19 -59 -23 -95 -23 -188 1 -103 4 -122 29 -183 49 -119
146 -282 275 -462 48 -66 75 -114 100 -177 10 -26 14 -28 71 -28 l60 0 0 41
c0 90 -36 175 -197 464 -110 200 -186 359 -234 495 -20 57 -41 106 -47 108 -6
2 -21 -30 -34 -70z"/>
<path d="M5252 7308 c-61 -100 -79 -232 -44 -329 18 -52 129 -230 152 -244 13
-8 13 -6 -4 95 -21 120 -43 278 -57 398 -6 56 -15 104 -19 107 -5 3 -17 -10
-28 -27z"/>
<path d="M4823 6898 c-16 -27 -16 -194 1 -249 22 -75 80 -170 153 -249 l62
-67 106 -23 c59 -12 109 -20 111 -17 11 11 -33 77 -141 212 -114 143 -222 299
-252 368 -18 39 -27 45 -40 25z"/>
<path d="M5990 6577 c192 -67 340 -164 484 -317 142 -151 249 -364 292 -580
19 -100 19 -351 0 -450 -78 -400 -356 -735 -732 -883 -277 -109 -553 -113
-849 -13 -11 4 0 -4 25 -18 123 -69 334 -116 525 -116 340 0 629 120 865 360
178 180 288 388 335 631 19 103 20 318 1 424 -67 373 -313 706 -646 875 -98
49 -270 108 -340 115 -54 5 -54 5 40 -28z"/>
<path d="M5525 6552 l-50 -17 -1 -127 c-2 -156 2 -158 96 -58 66 70 118 102
193 115 30 6 35 10 27 21 -6 7 -24 16 -40 19 -16 3 -35 13 -42 22 -18 22 -71
43 -105 43 -15 -1 -50 -9 -78 -18z"/>
<path d="M4715 6243 c-27 -8 -62 -24 -78 -35 -63 -45 -107 -157 -106 -267 0
-69 13 -119 22 -91 31 93 46 120 92 166 69 70 137 95 276 101 116 6 153 -7 77
-27 -162 -44 -308 -100 -308 -119 0 -18 105 -45 170 -44 54 0 86 9 190 52 69
29 172 68 230 87 119 39 181 72 228 121 43 46 40 56 -10 33 -61 -28 -155 -25
-370 10 -203 33 -333 38 -413 13z"/>
<path d="M4322 6016 c-182 -308 -243 -722 -158 -1072 114 -466 441 -838 896
-1017 164 -64 410 -103 580 -92 531 34 989 327 1222 781 81 158 160 418 157
518 0 22 -6 9 -20 -44 -62 -239 -179 -449 -348 -623 -200 -207 -419 -332 -711
-405 -96 -24 -122 -26 -300 -26 -164 0 -212 4 -300 23 -561 120 -996 563
-1106 1128 -25 123 -25 418 -1 523 18 77 83 277 96 295 10 13 22 45 17 45 -2
0 -13 -15 -24 -34z"/>
<path d="M6962 5855 c41 -36 68 -86 68 -127 l0 -38 198 0 197 1 -30 25 c-77
64 -343 165 -434 164 l-26 -1 27 -24z"/>
<path d="M4526 5704 c-14 -14 -17 -38 -15 -149 0 -74 -2 -138 -6 -144 -8 -15
-38 -14 -53 1 -7 7 -12 38 -12 70 0 44 -4 60 -16 65 -26 10 -37 -13 -38 -76
-1 -46 4 -66 20 -88 46 -61 119 -52 155 19 l20 39 737 -1 c405 -1 744 -1 753
-1 9 1 28 13 43 27 37 38 36 91 -3 128 -26 25 -33 27 -102 24 -68 -3 -74 -5
-77 -25 -3 -21 1 -23 40 -24 24 -1 50 -2 58 -3 8 -2 23 -3 33 -4 12 -1 17 -11
17 -31 l0 -28 -312 -7 c-172 -4 -511 -6 -753 -4 l-440 3 -3 102 c-3 110 -15
138 -46 107z"/>
<path d="M6211 5706 c-8 -9 -11 -55 -9 -137 3 -112 5 -124 22 -127 30 -6 36
16 36 135 0 88 -3 115 -16 127 -19 19 -19 19 -33 2z"/>
<path d="M6322 5708 c-7 -7 -12 -17 -12 -24 0 -19 32 -26 48 -10 13 12 13 18
2 30 -15 19 -22 20 -38 4z"/>
<path d="M6470 5701 c-5 -11 -10 -60 -10 -110 l0 -91 -45 0 -45 0 0 49 c0 51
-18 78 -45 67 -12 -4 -15 -29 -15 -136 0 -107 3 -132 15 -136 25 -10 45 16 45
55 l0 37 46 0 c38 1 51 7 77 33 32 31 32 32 32 132 0 78 -3 102 -15 109 -22
14 -28 12 -40 -9z"/>
<path d="M6593 5712 c-15 -10 -27 -138 -18 -207 7 -62 28 -82 51 -50 21 28 19
228 -2 249 -18 18 -16 18 -31 8z"/>
<path d="M7073 5642 c-29 -1 -53 -6 -53 -10 0 -4 11 -41 24 -82 14 -42 50
-175 81 -295 32 -121 62 -237 68 -258 11 -43 22 -49 127 -73 36 -9 69 -19 74
-24 15 -15 -41 -23 -109 -15 -36 3 -65 4 -65 0 0 -8 28 -101 42 -137 15 -39
32 -36 23 5 -3 17 -9 49 -12 70 l-6 37 48 0 c33 0 45 -4 43 -12 -3 -7 -14 -14
-26 -16 -25 -4 -26 -8 -11 -68 l12 -45 201 3 201 3 -3 91 c-5 116 15 169 79
211 39 26 50 28 138 28 84 0 103 -3 152 -27 80 -40 153 -121 194 -215 l34 -78
85 -3 c77 -2 86 -1 86 15 -1 29 -36 99 -58 115 -12 8 -20 23 -20 34 3 42 -34
163 -57 184 -13 12 -21 28 -19 34 3 7 -3 19 -13 28 -28 23 -213 78 -265 78
-26 0 -77 7 -114 16 -43 10 -85 13 -115 9 -64 -9 -83 -1 -110 43 -62 100 -54
123 13 38 39 -50 68 -70 68 -48 0 12 -134 208 -181 264 -21 26 -39 55 -39 66
0 12 -9 23 -22 27 -24 8 -405 14 -495 7z m404 -79 c14 -16 43 -54 65 -86 79
-115 100 -198 56 -213 -32 -10 -150 -5 -248 10 -101 17 -132 42 -159 131 -22
71 -35 160 -26 175 4 6 59 10 146 10 140 0 140 0 166 -27z"/>
<path d="M6022 5391 c-19 -11 -11 -45 11 -49 9 -2 20 4 23 13 9 21 -16 47 -34
36z"/>
<path d="M4525 5160 c-4 -12 -6 -49 -5 -83 3 -92 2 -97 -20 -97 -17 0 -20 7
-20 39 0 42 -16 63 -31 40 -15 -22 -2 -82 22 -101 29 -24 36 -23 72 15 l32 32
953 0 954 0 19 24 c25 31 24 146 -1 146 -11 0 -16 -16 -20 -65 -5 -64 -5 -65
-35 -65 l-30 0 -3 68 c-2 49 -7 67 -17 67 -10 0 -15 -18 -17 -67 l-3 -68 -32
-3 c-32 -3 -33 -2 -33 32 0 59 -32 63 -34 4 -1 -31 -3 -33 -36 -33 -27 0 -36
5 -38 20 -6 30 -32 55 -58 55 -24 0 -54 -34 -54 -61 0 -15 -49 -17 -566 -21
-311 -2 -655 -2 -764 0 l-199 5 -3 65 c-3 66 -20 93 -33 52z m1643 -98 c3 -16
-2 -22 -17 -22 -26 0 -36 17 -20 36 16 19 33 13 37 -14z"/>
<path d="M6110 5164 c0 -9 5 -14 12 -12 18 6 21 28 4 28 -9 0 -16 -7 -16 -16z"/>
<path d="M6155 5171 c-7 -12 12 -24 25 -16 11 7 4 25 -10 25 -5 0 -11 -4 -15
-9z"/>
<path d="M6255 5171 c-7 -12 12 -24 25 -16 11 7 4 25 -10 25 -5 0 -11 -4 -15
-9z"/>
<path d="M3707 4975 c-53 -12 -99 -24 -101 -26 -3 -3 16 -59 41 -126 43 -115
47 -123 82 -137 213 -88 187 -86 294 -24 37 22 67 42 67 44 0 9 -30 200 -35
220 -5 24 -28 31 -175 57 -69 12 -83 11 -173 -8z m246 -59 c-10 -7 -33 -18
-51 -25 l-32 -14 5 -66 6 -66 -20 40 c-10 22 -23 51 -29 65 -6 18 -25 31 -61
44 -77 27 -74 38 11 31 40 -3 96 -2 123 3 57 10 75 5 48 -12z"/>
<path d="M7923 4980 c-44 -10 -76 -33 -110 -76 -58 -76 -26 -210 71 -302 69
-66 126 -94 202 -100 81 -6 137 19 177 80 26 39 28 49 24 110 -4 68 -34 137
-73 169 -16 12 -17 12 -9 -1 8 -13 6 -13 -8 -1 -9 7 -14 17 -12 22 9 13 -71
66 -123 83 -67 21 -102 25 -139 16z m127 -111 c0 -5 13 -15 29 -20 28 -10 81
-67 94 -102 4 -11 1 -27 -7 -38 -13 -19 -15 -18 -36 26 -35 72 -111 101 -182
70 -14 -5 -18 -2 -18 13 0 25 15 37 60 50 47 14 60 14 60 1z m115 -227 c-10
-10 -16 -12 -13 -7 3 6 8 19 13 30 5 14 9 16 12 7 3 -8 -3 -21 -12 -30z"/>
<path d="M3055 4939 c2 -3 98 -11 212 -18 114 -6 223 -14 241 -17 32 -5 38 1
24 22 -7 12 -484 25 -477 13z"/>
<path d="M5932 4918 c6 -18 28 -21 28 -4 0 9 -7 16 -16 16 -9 0 -14 -5 -12
-12z"/>
<path d="M5275 4868 c-2 -7 -6 -38 -7 -68 -3 -54 -4 -55 -35 -58 -32 -3 -33
-2 -33 32 0 38 -17 57 -31 35 -5 -8 -9 -26 -9 -41 0 -44 -28 -35 -32 10 -4 45
-21 45 -28 0 -3 -20 -11 -33 -20 -33 -9 0 -17 13 -20 33 -3 18 -9 33 -15 33
-5 0 -12 -15 -15 -33 -4 -29 -9 -33 -37 -36 -32 -3 -33 -2 -33 32 0 39 -12 53
-28 33 -10 -12 -8 -144 2 -154 9 -9 26 8 26 26 0 25 29 30 183 28 117 -2 130
0 143 18 17 22 20 155 4 155 -6 0 -13 -6 -15 -12z"/>
<path d="M5344 4867 c-3 -8 -4 -45 -2 -83 2 -53 6 -69 18 -69 15 0 17 31 11
138 -1 28 -18 37 -27 14z"/>
<path d="M5912 4869 c2 -6 8 -10 13 -10 5 0 11 4 13 10 2 6 -4 11 -13 11 -9 0
-15 -5 -13 -11z"/>
<path d="M5953 4868 c2 -7 10 -13 17 -13 7 0 15 6 18 13 2 7 -5 12 -18 12 -13
0 -20 -5 -17 -12z"/>
<path d="M6105 4868 c-2 -7 -6 -38 -7 -68 -3 -54 -4 -55 -33 -55 -26 0 -31 4
-35 33 -3 18 -9 33 -15 33 -5 0 -12 -15 -15 -33 -3 -20 -11 -33 -20 -33 -9 0
-17 13 -20 33 -3 18 -9 33 -15 33 -5 0 -12 -15 -15 -33 -7 -44 -35 -45 -35 -1
0 17 -3 34 -7 38 -14 14 -28 -7 -28 -41 0 -33 -1 -34 -40 -34 -33 0 -40 3 -40
20 0 35 -35 60 -85 60 -33 0 -45 -4 -45 -15 0 -11 11 -15 39 -15 41 0 72 -23
54 -41 -5 -5 -45 -9 -89 -7 l-79 3 -5 33 c-8 54 -25 37 -30 -30 -4 -55 -8 -63
-25 -63 -17 0 -20 8 -23 45 -1 25 -5 52 -8 60 -9 26 -24 -10 -24 -60 0 -51 6
-62 37 -79 18 -9 28 -9 47 4 14 9 26 24 28 33 3 15 31 16 265 17 309 0 296 -4
297 101 1 45 -3 68 -11 71 -7 3 -15 -1 -18 -9z"/>
<path d="M6175 4867 c-4 -8 -5 -45 -3 -83 2 -53 6 -69 18 -69 12 0 15 15 15
79 0 55 -4 81 -12 83 -7 3 -15 -2 -18 -10z"/>
<path d="M5506 4863 c-11 -11 -6 -23 9 -23 8 0 15 4 15 9 0 13 -16 22 -24 14z"/>
<path d="M3250 4850 c120 -17 301 -33 306 -27 4 3 4 13 1 21 -5 12 -37 14
-184 14 -125 0 -162 -2 -123 -8z"/>
<path d="M4673 4805 c-13 -9 -23 -25 -23 -37 0 -11 -11 -33 -25 -50 -31 -37
-31 -43 0 -73 25 -25 59 -32 84 -16 22 14 3 31 -35 31 -27 0 -34 4 -34 20 0
23 1 23 103 20 100 -3 134 11 143 56 3 19 4 41 0 49 -9 24 -26 18 -26 -9 0
-52 -7 -56 -90 -56 -44 0 -82 5 -85 10 -10 16 13 38 43 42 15 2 27 8 27 13 0
17 -59 17 -82 0z"/>
<path d="M6260 4800 c-15 -15 -20 -31 -18 -53 3 -28 8 -33 41 -41 25 -6 37
-15 37 -27 0 -25 26 -44 34 -23 10 27 6 108 -7 134 -17 33 -59 38 -87 10z m58
-38 c3 -16 -2 -22 -16 -22 -27 0 -33 10 -21 32 13 24 33 19 37 -10z"/>
<path d="M3428 4759 c10 -9 154 -31 160 -24 14 14 -19 23 -90 27 -43 2 -74 1
-70 -3z"/>
<path d="M4815 4670 c-4 -6 -3 -16 3 -22 6 -6 12 -6 17 2 4 6 3 16 -3 22 -6 6
-12 6 -17 -2z"/>
<path d="M4865 4670 c-4 -6 -3 -16 3 -22 6 -6 12 -6 17 2 4 6 3 16 -3 22 -6 6
-12 6 -17 -2z"/>
</g>
</svg>
